<svg xmlns="http://www.w3.org/2000/svg" xml:space="preserve" width="2000" height="558" data-id="lg_kI1KZZQpW9rUrL5ARA" data-version="1" viewBox="0 0 2000 558"><g data-padding="20"><g transform="translate(10 13.286)scale(.95238)"><rect width="599.602" height="796.65" x="613.27" y="-571.682" fill="none" rx="0" ry="0" transform="matrix(.7 0 0 .7 400.35 400.35)"/><path fill="#3b5787" d="M1220.492 344.8v12.047q0 11.564-3.976 24.822-3.976 13.251-13.013 24.577t-23.492 18.914q-14.462 7.588-35.427 7.588H906.752q-6.748 0-12.53-2.408t-10.003-6.622q-4.214-4.221-6.622-10.003-2.415-5.782-2.415-12.53V118.77q0-6.503 2.415-12.285 2.408-5.789 6.622-10.122 4.221-4.34 10.003-6.748t12.53-2.408h209.643q11.564 0 24.815 4.095 13.258 4.095 24.703 13.132t19.033 23.492q7.595 14.462 7.595 35.427v11.802q0 16.632-5.544 35.784-5.544 19.159-17.829 36.267 10.598 6.503 19.873 15.666 9.282 9.156 16.268 21.203t11.088 27.23q4.095 15.176 4.095 33.495m-62.65 11.564V344.8q0-12.292-3.857-22.05t-10.843-16.751q-6.993-6.986-16.87-10.717-9.877-3.738-22.169-3.738H962.899v-63.133h113.008q12.292 0 22.169-3.738 9.884-3.731 16.87-10.717 6.986-6.993 10.724-16.751t3.738-22.05v-11.802q0-13.496-13.013-13.496H937.839v220.241h206.745q1.687 0 4.095-.238 2.415-.245 4.34-1.449 1.932-1.204 3.374-4.095 1.449-2.891 1.449-7.952"/></g><path fill="transparent" stroke="transparent" d="M790 0h420v558H790z"/></g></svg>